<?xml version="1.0" encoding="UTF-8"?>
<svg id="Layer_1" data-name="Layer 1" xmlns="http://www.w3.org/2000/svg" viewBox="0 0 144.9516963 28.3437881">
  <defs>
    <style>
      .cls-1 {
        fill: #fff;
      }

      .cls-2 {
        fill: #e60028;
      }
    </style>
  </defs>
  <g>
    <path d="m47.2138988,3.1679999c-1.5235-.646-3.1533958-1.0679-4.6044999-1.0679-2.1205999,0-3.1796999.4561-3.1796999,1.2735,0,2.3436999,9.4589998.4614,9.4589998,5.4608999,0,2.0702883-1.9434,3.6684999-5.8359999,3.6684999-2.3090999,0-4.1136999-.4756-6.1854998-1.5982116l.8545-1.8641883c1.8174,1.0091883,3.5126999,1.457,5.3451999,1.457,2.3080999,0,3.5453999-.6665,3.5453999-1.6631,0-2.5624999-9.4623998-.6494-9.4623998-5.3344999,0-2.0194999,1.9282-3.4115999,5.4140999-3.4115999,2.0858999,0,3.8402999.4585,5.5170999,1.2983l-.8672,1.7813Z"/>
    <path d="m57.7592985,12.5654997c-3.7782999,0-6.9111998-2.5157116-6.9111998-6.2763998C50.8480987,2.5712999,53.9809986.0069,57.7592985.0069c3.7997999,0,6.8827998,2.5643999,6.8827998,6.2821998,0,3.7606883-3.0829999,6.2763998-6.8827998,6.2763998m0-10.5331997c-2.7514999,0-4.6313999,1.8637-4.6313999,4.2567999,0,2.4491999,1.7984,4.2704999,4.6313999,4.2704999,2.8153999,0,4.6044999-1.8384,4.6044999-4.2704999,0-2.3930999-1.7891-4.2567999-4.6044999-4.2567999"/>
    <path d="m73.668503,12.5522997c-3.9703048,0-6.961-2.5141999-6.961-6.2802998C66.707503,2.5712999,69.7450982.0069,73.668503.0069c2.340795,0,4.017.6635,5.520495,1.7714l-1.1704,1.7403c-1.0938-.8389-2.4624999-1.4536-4.2861999-1.4536-2.8964999,0-4.6967999,1.831-4.6967999,4.2069999,0,2.4491999,1.8174,4.2255999,4.7265999,4.2255999,1.8189,0,3.2611999-.5889,4.3485999-1.4282l1.1748,1.7421c-1.5063,1.1075-3.2762999,1.7408-5.617095,1.7408"/>
    <rect x="81.6825979" y=".3711" width="2.2045999" height="11.8617997"/>
    <polygon points="87.1420978 12.2328997 87.1420978 .3711 97.9437975 .3711 97.9437975 2.3320999 89.3436977 2.3320999 89.3436977 5.2133999 96.0277976 5.2133999 96.0277976 7.1708998 89.3436977 7.1708998 89.3436977 10.2724997 98.3231975 10.2724997 98.3231975 12.2328997 87.1420978 12.2328997"/>
    <polygon points="106.5311973 2.3188999 106.5311973 12.2328997 104.3358974 12.2328997 104.3358974 2.3188999 99.498503 2.3188999 99.498503 .3711 111.3637972 .3711 111.3637972 2.3188999 106.5311973 2.3188999"/>
    <polygon points="113.1327971 12.2328997 113.1327971 .3711 123.9345969 .3711 123.9345969 2.3320999 115.334503 2.3320999 115.334503 5.2133999 122.0233969 5.2133999 122.0233969 7.1708998 115.334503 7.1708998 115.334503 10.2724997 124.3139969 10.2724997 124.3139969 12.2328997 113.1327971 12.2328997"/>
    <path d="m43.6498989,26.2734993c1.2061,0,2.4496999-.2725,3.3856999-.7163v-3.4487999h2.1376999v4.6064999c-1.5047957,1.0107-3.5736999,1.6288888-5.6171999,1.6288888-3.9657999,0-6.9564998-2.5131888-6.9564998-6.2802887,0-3.7011999,3.0360999-6.2597998,6.9564998-6.2597998,2.2954999,0,4.0185999.6465,5.5234999,1.7535l-1.169,1.7421c-1.0966-.8393-2.4715999-1.4116-4.2933999-1.4116-2.8940999-.061-4.6923999,1.8062-4.6923999,4.1757999,0,2.4550999,1.8188,4.2099999,4.7250999,4.2099999"/>
    <polygon points="52.0702987 28.0248993 52.0702987 16.1650996 62.8749984 16.1650996 62.8749984 18.1235995 54.2655986 18.1235995 54.2655986 21.0053995 60.9589985 21.0053995 60.9589985 22.9648994 54.2655986 22.9648994 54.2655986 26.0663993 63.251503 26.0663993 63.251503 28.0248993 52.0702987 28.0248993"/>
    <path d="m67.5653983,28.0248993h-2.1512999v-11.8597997h2.2450999l7.7343998,8.9374998.0532-.0157c-.1299-2.2455999-.147-4.0663999-.147-5.8241999v-3.0975999h2.1498999v11.8597997h-2.2265999l-7.7074998-8.9349998-.0346.0166c.0844,1.7552886.0844,4.8231999.0844,5.8221999v3.0961999Z"/>
    <polygon points="80.546898 28.0248993 80.546898 16.1650996 91.3466977 16.1650996 91.3466977 18.1235995 82.7421979 18.1235995 82.7421979 21.0053995 89.4325977 21.0053995 89.4325977 22.9648994 82.7421979 22.9648994 82.7421979 26.0663993 91.7309977 26.0663993 91.7309977 28.0248993 80.546898 28.0248993"/>
    <path d="m99.7968975,23.6615994h-3.5439999v4.3632999h-2.1996999v-11.8597997h7.6230998c2.5282999,0,4.0970999,1.5526885,4.0970999,3.7816885,0,2.1167113-1.5405,3.3814113-3.4017999,3.6523113l3.5297999,4.4257999h-2.7543999l-3.3500999-4.3632999Zm1.6435-1.977c1.375,0,2.1532999-.7109,2.1532999-1.7378113,0-1.125-.6831-1.8231886-1.9174-1.8231886h-5.4233999v3.5609999h5.1874999Z"/>
    <path d="m110.4091972,25.1454994l-1.3609,2.8793999h-2.3797942l5.7796941-11.8597997h2.3110999l5.7855999,11.8597997h-2.3715999l-1.3642-2.8793999h-6.3998998Zm.9155-1.9253h4.5688999l-2.2763999-4.8075999-2.2924999,4.8075999Z"/>
    <polygon points="122.1625969 28.0248993 122.1625969 16.1650996 124.3593969 16.1650996 124.3593969 26.0663993 132.2797967 26.0663993 132.2797967 28.0248993 122.1625969 28.0248993"/>
    <polygon points="133.7655966 28.0248993 133.7655966 16.1650996 144.5751963 16.1650996 144.5751963 18.1235995 135.9672966 18.1235995 135.9672966 21.0053995 142.6576964 21.0053995 142.6576964 22.9648994 135.9672966 22.9648994 135.9672966 26.0663993 144.9516963 26.0663993 144.9516963 28.0248993 133.7655966 28.0248993"/>
  </g>
  <rect class="cls-2" width="28.3480993" height="14.4555996"/>
  <rect y="14.1718996" width="28.3480993" height="14.1718885"/>
  <rect class="cls-1" x="4.9433999" y="13.3095997" width="18.4422995" height="1.7246"/>
</svg>